<svg xmlns="http://www.w3.org/2000/svg" xmlns:xlink="http://www.w3.org/1999/xlink" width="1080" zoomAndPan="magnify" viewBox="0 0 810 809.999993" height="1080" preserveAspectRatio="xMidYMid meet" version="1.0"><defs><clipPath id="eb6cc88ce8"><path d="M 233 362 L 679 362 L 679 644.582031 L 233 644.582031 Z M 233 362 " clip-rule="nonzero"/></clipPath><clipPath id="3fc139d395"><path d="M 130.378906 165.332031 L 393 165.332031 L 393 427 L 130.378906 427 Z M 130.378906 165.332031 " clip-rule="nonzero"/></clipPath></defs><rect x="-81" width="972" fill="#ffffff" y="-80.999999" height="971.999992" fill-opacity="1"/><rect x="-81" width="972" fill="#beefff" y="-80.999999" height="971.999992" fill-opacity="1"/><path fill="#231f20" d="M 644.636719 296.121094 L 593.898438 296.121094 L 593.898438 316.234375 C 593.898438 318.371094 592.171875 320.105469 590.035156 320.105469 L 573.289062 320.105469 C 571.152344 320.105469 569.429688 318.371094 569.429688 316.234375 L 569.429688 296.121094 L 510.179688 296.121094 L 510.179688 316.234375 C 510.179688 318.371094 508.457031 320.105469 506.320312 320.105469 L 489.574219 320.105469 C 487.449219 320.105469 485.710938 318.371094 485.710938 316.234375 L 485.710938 296.121094 L 426.464844 296.121094 L 426.464844 316.234375 C 426.464844 318.371094 424.738281 320.105469 422.605469 320.105469 L 405.867188 320.105469 C 403.722656 320.105469 401.996094 318.371094 401.996094 316.234375 L 401.996094 296.121094 L 342.75 296.121094 L 342.75 316.234375 C 342.75 318.371094 341.023438 320.105469 338.890625 320.105469 L 322.140625 320.105469 C 320.007812 320.105469 318.28125 318.371094 318.28125 316.234375 L 318.28125 296.121094 L 267.542969 296.121094 C 251.191406 296.121094 237.933594 309.375 237.933594 325.730469 L 237.933594 366.800781 L 674.234375 366.800781 L 674.234375 325.730469 C 674.234375 309.375 660.984375 296.121094 644.636719 296.121094 " fill-opacity="1" fill-rule="nonzero"/><path stroke-linecap="round" transform="matrix(0.237545, 0, 0, -0.237605, -97.766008, 912.599086)" fill="none" stroke-linejoin="round" d="M 3125.319113 2594.545875 L 2911.72437 2594.545875 L 2911.72437 2509.895926 C 2911.72437 2500.903204 2904.455998 2493.603811 2895.460977 2493.603811 L 2824.964352 2493.603811 C 2815.969331 2493.603811 2808.717404 2500.903204 2808.717404 2509.895926 L 2808.717404 2594.545875 L 2559.290576 2594.545875 L 2559.290576 2509.895926 C 2559.290576 2500.903204 2552.038648 2493.603811 2543.043628 2493.603811 L 2472.547002 2493.603811 C 2463.601314 2493.603811 2456.28361 2500.903204 2456.28361 2509.895926 L 2456.28361 2594.545875 L 2206.873226 2594.545875 L 2206.873226 2509.895926 C 2206.873226 2500.903204 2199.604854 2493.603811 2190.626278 2493.603811 L 2120.162541 2493.603811 C 2111.134632 2493.603811 2103.86626 2500.903204 2103.86626 2509.895926 L 2103.86626 2594.545875 L 1854.455876 2594.545875 L 1854.455876 2509.895926 C 1854.455876 2500.903204 1847.187505 2493.603811 1838.208928 2493.603811 L 1767.695858 2493.603811 C 1758.717282 2493.603811 1751.448911 2500.903204 1751.448911 2509.895926 L 1751.448911 2594.545875 L 1537.854167 2594.545875 C 1469.018414 2594.545875 1413.20653 2538.764699 1413.20653 2469.930102 L 1413.20653 2297.079147 L 3249.917418 2297.079147 L 3249.917418 2469.930102 C 3249.917418 2538.764699 3194.138422 2594.545875 3125.319113 2594.545875 Z M 3125.319113 2594.545875 " stroke="#ffffff" stroke-width="40" stroke-opacity="1" stroke-miterlimit="10"/><path fill="#231f20" d="M 237.933594 438.527344 C 237.933594 438.714844 237.960938 438.890625 237.96875 439.074219 C 237.960938 439.046875 237.960938 439.03125 237.960938 439 C 237.960938 439.160156 237.933594 439.316406 237.933594 439.476562 L 237.933594 610.363281 C 237.933594 626.71875 251.191406 639.972656 267.542969 639.972656 L 644.636719 639.972656 C 660.984375 639.972656 674.234375 626.71875 674.234375 610.363281 L 674.234375 439.476562 C 674.234375 439.316406 674.226562 439.160156 674.21875 439 C 674.21875 439.03125 674.207031 439.046875 674.207031 439.074219 C 674.21875 438.890625 674.234375 438.714844 674.234375 438.527344 L 674.234375 366.800781 L 237.933594 366.800781 L 237.933594 438.527344 " fill-opacity="1" fill-rule="nonzero"/><g clip-path="url(#eb6cc88ce8)"><path stroke-linecap="round" transform="matrix(0.237545, 0, 0, -0.237605, -97.766008, 912.599086)" fill="none" stroke-linejoin="round" d="M 1413.20653 1995.206478 C 1413.20653 1994.417354 1413.32164 1993.677551 1413.354528 1992.904867 C 1413.32164 1993.019948 1413.32164 1993.085708 1413.32164 1993.217229 C 1413.32164 1992.543185 1413.20653 1991.885582 1413.20653 1991.211539 L 1413.20653 1272.00755 C 1413.20653 1203.172954 1469.018414 1147.391777 1537.854167 1147.391777 L 3125.319113 1147.391777 C 3194.138422 1147.391777 3249.917418 1203.172954 3249.917418 1272.00755 L 3249.917418 1991.211539 C 3249.917418 1991.885582 3249.884529 1992.543185 3249.851641 1993.217229 C 3249.851641 1993.085708 3249.802308 1993.019948 3249.802308 1992.904867 C 3249.851641 1993.677551 3249.917418 1994.417354 3249.917418 1995.206478 L 3249.917418 2297.079147 L 1413.20653 2297.079147 Z M 1413.20653 1995.206478 " stroke="#ffffff" stroke-width="40" stroke-opacity="1" stroke-miterlimit="10"/></g><path fill="#ffffff" d="M 320.144531 436.375 C 320.144531 441.980469 315.597656 446.519531 309.996094 446.519531 L 293.085938 446.519531 C 287.484375 446.519531 282.945312 441.980469 282.945312 436.375 L 282.945312 419.464844 C 282.945312 413.859375 287.484375 409.320312 293.085938 409.320312 L 309.996094 409.320312 C 315.597656 409.320312 320.144531 413.859375 320.144531 419.464844 L 320.144531 436.375 " fill-opacity="1" fill-rule="nonzero"/><path fill="#ffffff" d="M 397.414062 436.375 C 397.414062 441.980469 392.875 446.519531 387.269531 446.519531 L 370.363281 446.519531 C 364.757812 446.519531 360.210938 441.980469 360.210938 436.375 L 360.210938 419.464844 C 360.210938 413.859375 364.757812 409.320312 370.363281 409.320312 L 387.269531 409.320312 C 392.875 409.320312 397.414062 413.859375 397.414062 419.464844 L 397.414062 436.375 " fill-opacity="1" fill-rule="nonzero"/><path fill="#ffffff" d="M 474.6875 436.375 C 474.6875 441.980469 470.140625 446.519531 464.546875 446.519531 L 447.632812 446.519531 C 442.027344 446.519531 437.488281 441.980469 437.488281 436.375 L 437.488281 419.464844 C 437.488281 413.859375 442.027344 409.320312 447.632812 409.320312 L 464.546875 409.320312 C 470.140625 409.320312 474.6875 413.859375 474.6875 419.464844 L 474.6875 436.375 " fill-opacity="1" fill-rule="nonzero"/><path fill="#ffffff" d="M 551.964844 436.375 C 551.964844 441.980469 547.417969 446.519531 541.8125 446.519531 L 524.90625 446.519531 C 519.300781 446.519531 514.765625 441.980469 514.765625 436.375 L 514.765625 419.464844 C 514.765625 413.859375 519.300781 409.320312 524.90625 409.320312 L 541.8125 409.320312 C 547.417969 409.320312 551.964844 413.859375 551.964844 419.464844 L 551.964844 436.375 " fill-opacity="1" fill-rule="nonzero"/><path fill="#ffffff" d="M 629.230469 436.375 C 629.230469 441.980469 624.695312 446.519531 619.089844 446.519531 L 602.183594 446.519531 C 596.578125 446.519531 592.03125 441.980469 592.03125 436.375 L 592.03125 419.464844 C 592.03125 413.859375 596.578125 409.320312 602.183594 409.320312 L 619.089844 409.320312 C 624.695312 409.320312 629.230469 413.859375 629.230469 419.464844 L 629.230469 436.375 " fill-opacity="1" fill-rule="nonzero"/><path fill="#ffffff" d="M 320.144531 511.035156 C 320.144531 516.648438 315.597656 521.1875 309.996094 521.1875 L 293.085938 521.1875 C 287.484375 521.1875 282.945312 516.648438 282.945312 511.035156 L 282.945312 494.132812 C 282.945312 488.527344 287.484375 483.988281 293.085938 483.988281 L 309.996094 483.988281 C 315.597656 483.988281 320.144531 488.527344 320.144531 494.132812 L 320.144531 511.035156 " fill-opacity="1" fill-rule="nonzero"/><path fill="#ffffff" d="M 397.414062 511.035156 C 397.414062 516.648438 392.875 521.1875 387.269531 521.1875 L 370.363281 521.1875 C 364.757812 521.1875 360.210938 516.648438 360.210938 511.035156 L 360.210938 494.132812 C 360.210938 488.527344 364.757812 483.988281 370.363281 483.988281 L 387.269531 483.988281 C 392.875 483.988281 397.414062 488.527344 397.414062 494.132812 L 397.414062 511.035156 " fill-opacity="1" fill-rule="nonzero"/><path fill="#ffffff" d="M 474.6875 511.035156 C 474.6875 516.648438 470.140625 521.1875 464.546875 521.1875 L 447.632812 521.1875 C 442.027344 521.1875 437.488281 516.648438 437.488281 511.035156 L 437.488281 494.132812 C 437.488281 488.527344 442.027344 483.988281 447.632812 483.988281 L 464.546875 483.988281 C 470.140625 483.988281 474.6875 488.527344 474.6875 494.132812 L 474.6875 511.035156 " fill-opacity="1" fill-rule="nonzero"/><path fill="#ffffff" d="M 551.964844 511.035156 C 551.964844 516.648438 547.417969 521.1875 541.8125 521.1875 L 524.90625 521.1875 C 519.300781 521.1875 514.765625 516.648438 514.765625 511.035156 L 514.765625 494.132812 C 514.765625 488.527344 519.300781 483.988281 524.90625 483.988281 L 541.8125 483.988281 C 547.417969 483.988281 551.964844 488.527344 551.964844 494.132812 L 551.964844 511.035156 " fill-opacity="1" fill-rule="nonzero"/><path fill="#ffffff" d="M 629.230469 511.035156 C 629.230469 516.648438 624.695312 521.1875 619.089844 521.1875 L 602.183594 521.1875 C 596.578125 521.1875 592.03125 516.648438 592.03125 511.035156 L 592.03125 494.132812 C 592.03125 488.527344 596.578125 483.988281 602.183594 483.988281 L 619.089844 483.988281 C 624.695312 483.988281 629.230469 488.527344 629.230469 494.132812 L 629.230469 511.035156 " fill-opacity="1" fill-rule="nonzero"/><path fill="#ffffff" d="M 320.144531 585.703125 C 320.144531 591.320312 315.597656 595.847656 309.996094 595.847656 L 293.085938 595.847656 C 287.484375 595.847656 282.945312 591.320312 282.945312 585.703125 L 282.945312 568.800781 C 282.945312 563.1875 287.484375 558.648438 293.085938 558.648438 L 309.996094 558.648438 C 315.597656 558.648438 320.144531 563.1875 320.144531 568.800781 L 320.144531 585.703125 " fill-opacity="1" fill-rule="nonzero"/><path fill="#ffffff" d="M 397.414062 585.703125 C 397.414062 591.320312 392.875 595.847656 387.269531 595.847656 L 370.363281 595.847656 C 364.757812 595.847656 360.210938 591.320312 360.210938 585.703125 L 360.210938 568.800781 C 360.210938 563.1875 364.757812 558.648438 370.363281 558.648438 L 387.269531 558.648438 C 392.875 558.648438 397.414062 563.1875 397.414062 568.800781 L 397.414062 585.703125 " fill-opacity="1" fill-rule="nonzero"/><path fill="#ffffff" d="M 474.6875 585.703125 C 474.6875 591.320312 470.140625 595.847656 464.546875 595.847656 L 447.632812 595.847656 C 442.027344 595.847656 437.488281 591.320312 437.488281 585.703125 L 437.488281 568.800781 C 437.488281 563.1875 442.027344 558.648438 447.632812 558.648438 L 464.546875 558.648438 C 470.140625 558.648438 474.6875 563.1875 474.6875 568.800781 L 474.6875 585.703125 " fill-opacity="1" fill-rule="nonzero"/><path fill="#ffffff" d="M 551.964844 585.703125 C 551.964844 591.320312 547.417969 595.847656 541.8125 595.847656 L 524.90625 595.847656 C 519.300781 595.847656 514.765625 591.320312 514.765625 585.703125 L 514.765625 568.800781 C 514.765625 563.1875 519.300781 558.648438 524.90625 558.648438 L 541.8125 558.648438 C 547.417969 558.648438 551.964844 563.1875 551.964844 568.800781 L 551.964844 585.703125 " fill-opacity="1" fill-rule="nonzero"/><path fill="#ffffff" d="M 629.230469 585.703125 C 629.230469 591.320312 624.695312 595.847656 619.089844 595.847656 L 602.183594 595.847656 C 596.578125 595.847656 592.03125 591.320312 592.03125 585.703125 L 592.03125 568.800781 C 592.03125 563.1875 596.578125 558.648438 602.183594 558.648438 L 619.089844 558.648438 C 624.695312 558.648438 629.230469 563.1875 629.230469 568.800781 L 629.230469 585.703125 " fill-opacity="1" fill-rule="nonzero"/><path fill="#231f20" d="M 322.140625 324.859375 C 317.390625 324.859375 313.53125 320.988281 313.53125 316.234375 L 313.53125 273.03125 C 313.53125 268.277344 317.390625 264.40625 322.140625 264.40625 L 338.890625 264.40625 C 343.640625 264.40625 347.5 268.277344 347.5 273.03125 L 347.5 316.234375 C 347.5 320.988281 343.640625 324.859375 338.890625 324.859375 Z M 405.867188 324.859375 C 401.113281 324.859375 397.246094 320.988281 397.246094 316.234375 L 397.246094 273.03125 C 397.246094 268.277344 401.113281 264.40625 405.867188 264.40625 L 422.605469 264.40625 C 427.355469 264.40625 431.214844 268.277344 431.214844 273.03125 L 431.214844 316.234375 C 431.214844 320.988281 427.355469 324.859375 422.605469 324.859375 Z M 489.574219 324.859375 C 484.820312 324.859375 480.960938 320.988281 480.960938 316.234375 L 480.960938 273.03125 C 480.960938 268.277344 484.820312 264.40625 489.574219 264.40625 L 506.320312 264.40625 C 511.070312 264.40625 514.933594 268.277344 514.933594 273.03125 L 514.933594 316.234375 C 514.933594 320.988281 511.070312 324.859375 506.320312 324.859375 Z M 573.289062 324.859375 C 568.539062 324.859375 564.675781 320.988281 564.675781 316.234375 L 564.675781 273.03125 C 564.675781 268.277344 568.539062 264.40625 573.289062 264.40625 L 590.035156 264.40625 C 594.789062 264.40625 598.648438 268.277344 598.648438 273.03125 L 598.648438 316.234375 C 598.648438 320.988281 594.789062 324.859375 590.035156 324.859375 L 573.289062 324.859375 " fill-opacity="1" fill-rule="nonzero"/><path fill="#ffffff" d="M 338.890625 259.65625 L 322.140625 259.65625 C 314.773438 259.65625 308.777344 265.660156 308.777344 273.03125 L 308.777344 316.234375 C 308.777344 323.605469 314.773438 329.609375 322.140625 329.609375 L 338.890625 329.609375 C 346.257812 329.609375 352.25 323.605469 352.25 316.234375 L 352.25 273.03125 C 352.25 265.660156 346.257812 259.65625 338.890625 259.65625 Z M 422.605469 259.65625 L 405.867188 259.65625 C 398.488281 259.65625 392.496094 265.660156 392.496094 273.03125 L 392.496094 316.234375 C 392.496094 323.605469 398.488281 329.609375 405.867188 329.609375 L 422.605469 329.609375 C 429.972656 329.609375 435.96875 323.605469 435.96875 316.234375 L 435.96875 273.03125 C 435.96875 265.660156 429.972656 259.65625 422.605469 259.65625 Z M 506.320312 259.65625 L 489.574219 259.65625 C 482.203125 259.65625 476.210938 265.660156 476.210938 273.03125 L 476.210938 316.234375 C 476.210938 323.605469 482.203125 329.609375 489.574219 329.609375 L 506.320312 329.609375 C 513.6875 329.609375 519.683594 323.605469 519.683594 316.234375 L 519.683594 273.03125 C 519.683594 265.660156 513.6875 259.65625 506.320312 259.65625 Z M 590.035156 259.65625 L 573.289062 259.65625 C 565.921875 259.65625 559.925781 265.660156 559.925781 273.03125 L 559.925781 316.234375 C 559.925781 323.605469 565.921875 329.609375 573.289062 329.609375 L 590.035156 329.609375 C 597.40625 329.609375 603.398438 323.605469 603.398438 316.234375 L 603.398438 273.03125 C 603.398438 265.660156 597.40625 259.65625 590.035156 259.65625 Z M 338.890625 269.160156 C 341.023438 269.160156 342.75 270.894531 342.75 273.03125 L 342.75 316.234375 C 342.75 318.371094 341.023438 320.105469 338.890625 320.105469 L 322.140625 320.105469 C 320.007812 320.105469 318.28125 318.371094 318.28125 316.234375 L 318.28125 273.03125 C 318.28125 270.894531 320.007812 269.160156 322.140625 269.160156 L 338.890625 269.160156 M 422.605469 269.160156 C 424.738281 269.160156 426.464844 270.894531 426.464844 273.03125 L 426.464844 316.234375 C 426.464844 318.371094 424.738281 320.105469 422.605469 320.105469 L 405.867188 320.105469 C 403.722656 320.105469 401.996094 318.371094 401.996094 316.234375 L 401.996094 273.03125 C 401.996094 270.894531 403.722656 269.160156 405.867188 269.160156 L 422.605469 269.160156 M 506.320312 269.160156 C 508.457031 269.160156 510.179688 270.894531 510.179688 273.03125 L 510.179688 316.234375 C 510.179688 318.371094 508.457031 320.105469 506.320312 320.105469 L 489.574219 320.105469 C 487.449219 320.105469 485.710938 318.371094 485.710938 316.234375 L 485.710938 273.03125 C 485.710938 270.894531 487.449219 269.160156 489.574219 269.160156 L 506.320312 269.160156 M 590.035156 269.160156 C 592.171875 269.160156 593.898438 270.894531 593.898438 273.03125 L 593.898438 316.234375 C 593.898438 318.371094 592.171875 320.105469 590.035156 320.105469 L 573.289062 320.105469 C 571.152344 320.105469 569.429688 318.371094 569.429688 316.234375 L 569.429688 273.03125 C 569.429688 270.894531 571.152344 269.160156 573.289062 269.160156 L 590.035156 269.160156 " fill-opacity="1" fill-rule="nonzero"/><path fill="#231f20" d="M 261.425781 422.0625 C 192 422.0625 135.519531 365.566406 135.519531 296.121094 C 135.519531 226.679688 192 170.183594 261.425781 170.183594 C 330.855469 170.183594 387.335938 226.679688 387.335938 296.121094 C 387.335938 365.566406 330.855469 422.0625 261.425781 422.0625 " fill-opacity="1" fill-rule="nonzero"/><g clip-path="url(#3fc139d395)"><path fill="#ffffff" d="M 261.425781 165.429688 C 189.382812 165.429688 130.769531 224.050781 130.769531 296.121094 C 130.769531 368.183594 189.382812 426.816406 261.425781 426.816406 C 333.46875 426.816406 392.085938 368.183594 392.085938 296.121094 C 392.085938 224.050781 333.46875 165.429688 261.425781 165.429688 Z M 261.425781 174.933594 C 328.339844 174.933594 382.585938 229.183594 382.585938 296.121094 C 382.585938 363.050781 328.339844 417.3125 261.425781 417.3125 C 194.515625 417.3125 140.269531 363.050781 140.269531 296.121094 C 140.269531 229.183594 194.515625 174.933594 261.425781 174.933594 " fill-opacity="1" fill-rule="nonzero"/></g><path fill="#231f20" d="M 363.394531 296.121094 C 363.394531 239.785156 317.742188 194.128906 261.425781 194.128906 C 205.113281 194.128906 159.460938 239.785156 159.460938 296.121094 C 159.460938 352.453125 205.113281 398.117188 261.425781 398.117188 C 317.742188 398.117188 363.394531 352.453125 363.394531 296.121094 " fill-opacity="1" fill-rule="nonzero"/><path stroke-linecap="round" transform="matrix(0.237545, 0, 0, -0.237605, -97.766008, 912.599086)" fill="none" stroke-linejoin="round" d="M 1941.363892 2594.545875 C 1941.363892 2831.644646 1749.1796 3023.79625 1512.102425 3023.79625 C 1275.041695 3023.79625 1082.857403 2831.644646 1082.857403 2594.545875 C 1082.857403 2357.463545 1275.041695 2165.27906 1512.102425 2165.27906 C 1749.1796 2165.27906 1941.363892 2357.463545 1941.363892 2594.545875 Z M 1941.363892 2594.545875 " stroke="#ffffff" stroke-width="40" stroke-opacity="1" stroke-miterlimit="10"/><path stroke-linecap="round" transform="matrix(0.237545, 0, 0, -0.237605, -97.766008, 912.599086)" fill="none" stroke-linejoin="round" d="M 1512.102425 2971.845611 L 1512.102425 2906.890872 " stroke="#ffffff" stroke-width="40" stroke-opacity="1" stroke-miterlimit="10"/><path stroke-linecap="round" transform="matrix(0.237545, 0, 0, -0.237605, -97.766008, 912.599086)" fill="none" stroke-linejoin="round" d="M 1512.102425 2282.233758 L 1512.102425 2217.27902 " stroke="#ffffff" stroke-width="40" stroke-opacity="1" stroke-miterlimit="10"/><path stroke-linecap="round" transform="matrix(0.237545, 0, 0, -0.237605, -97.766008, 912.599086)" fill="none" stroke-linejoin="round" d="M 1134.804881 2594.545875 L 1199.759784 2594.545875 " stroke="#ffffff" stroke-width="40" stroke-opacity="1" stroke-miterlimit="10"/><path stroke-linecap="round" transform="matrix(0.237545, 0, 0, -0.237605, -97.766008, 912.599086)" fill="none" stroke-linejoin="round" d="M 1824.412178 2594.545875 L 1889.367081 2594.545875 " stroke="#ffffff" stroke-width="40" stroke-opacity="1" stroke-miterlimit="10"/><path stroke-linecap="round" transform="matrix(0.237545, 0, 0, -0.237605, -97.766008, 912.599086)" fill-opacity="1" fill="#231f20" fill-rule="nonzero" stroke-linejoin="round" d="M 1484.772033 2621.918601 L 1306.483157 2800.161901 " stroke="#ffffff" stroke-width="40" stroke-opacity="1" stroke-miterlimit="10"/><path stroke-linecap="round" transform="matrix(0.237545, 0, 0, -0.237605, -97.766008, 912.599086)" fill="none" stroke-linejoin="round" d="M 1512.102425 2633.245813 L 1512.102425 2772.706975 " stroke="#ffffff" stroke-width="40" stroke-opacity="1" stroke-miterlimit="10"/><path fill="#ffffff" d="M 270.621094 296.121094 C 270.621094 291.046875 266.503906 286.925781 261.425781 286.925781 C 256.351562 286.925781 252.230469 291.046875 252.230469 296.121094 C 252.230469 301.199219 256.351562 305.3125 261.425781 305.3125 C 266.503906 305.3125 270.621094 301.199219 270.621094 296.121094 " fill-opacity="1" fill-rule="nonzero"/></svg>