<svg xmlns="http://www.w3.org/2000/svg" xmlns:xlink="http://www.w3.org/1999/xlink" width="1080" zoomAndPan="magnify" viewBox="0 0 810 809.999993" height="1080" preserveAspectRatio="xMidYMid meet" version="1.0"><defs><clipPath id="3287fe693a"><path d="M 150.273438 204 L 306 204 L 306 360 L 150.273438 360 Z M 150.273438 204 " clip-rule="nonzero"/></clipPath><clipPath id="0eaf159021"><path d="M 381 62.796875 L 431 62.796875 L 431 170 L 381 170 Z M 381 62.796875 " clip-rule="nonzero"/></clipPath><clipPath id="ec75139881"><path d="M 287 380 L 596 380 L 596 809.796875 L 287 809.796875 Z M 287 380 " clip-rule="nonzero"/></clipPath></defs><rect x="-81" width="972" fill="#ffffff" y="-80.999999" height="971.999992" fill-opacity="1"/><rect x="-81" width="972" fill="#beefff" y="-80.999999" height="971.999992" fill-opacity="1"/><g clip-path="url(#3287fe693a)"><path stroke-linecap="butt" transform="matrix(2.184577, 0, 0, 2.184849, -71.450091, -35.73876)" fill="none" stroke-linejoin="miter" d="M 106.689367 114.95916 L 167.579646 114.95916 L 167.579646 175.8508 L 106.689367 175.8508 Z M 106.689367 114.95916 " stroke="#000000" stroke-width="10" stroke-opacity="1" stroke-miterlimit="26.299999"/></g><path stroke-linecap="butt" transform="matrix(2.184577, 0, 0, 2.184849, -71.450091, -35.73876)" fill="none" stroke-linejoin="miter" d="M 187.579581 114.95916 L 248.46986 114.95916 L 248.46986 175.8508 L 187.579581 175.8508 Z M 187.579581 114.95916 " stroke="#000000" stroke-width="10" stroke-opacity="1" stroke-miterlimit="26.299999"/><path stroke-linecap="butt" transform="matrix(2.184577, 0, 0, 2.184849, -71.450091, -35.73876)" fill="none" stroke-linejoin="miter" d="M 268.469795 114.95916 L 329.360074 114.95916 L 329.360074 175.8508 L 268.469795 175.8508 Z M 268.469795 114.95916 " stroke="#000000" stroke-width="10" stroke-opacity="1" stroke-miterlimit="26.299999"/><path fill="#000000" d="M 391.964844 73.804688 L 419.855469 74.875 L 413.417969 158.558594 L 398.398438 158.558594 Z M 391.964844 73.804688 " fill-opacity="1" fill-rule="nonzero"/><g clip-path="url(#0eaf159021)"><path stroke-linecap="round" transform="matrix(2.184577, 0, 0, 2.184849, -71.450091, -35.73876)" fill="none" stroke-linejoin="round" d="M 212.130238 50.137757 L 224.897295 50.627637 L 221.950501 88.929405 L 215.075244 88.929405 Z M 212.130238 50.137757 " stroke="#000000" stroke-width="10" stroke-opacity="1" stroke-miterlimit="26.299999"/></g><path stroke-linecap="round" transform="matrix(2.184577, 0, 0, 2.184849, -71.450091, -35.73876)" fill-opacity="1" fill="#000000" fill-rule="nonzero" stroke-linejoin="round" d="M 258.039788 55.681975 L 268.850661 62.490225 L 247.148452 94.187562 L 241.195856 90.751255 Z M 258.039788 55.681975 " stroke="#000000" stroke-width="10" stroke-opacity="1" stroke-miterlimit="26.299999"/><path stroke-linecap="round" transform="matrix(2.184577, 0, 0, 2.184849, -71.450091, -35.73876)" fill-opacity="1" fill="#000000" fill-rule="nonzero" stroke-linejoin="round" d="M 167.499181 62.450892 L 178.801782 56.491885 L 195.400744 91.133862 L 189.448148 94.571956 Z M 167.499181 62.450892 " stroke="#000000" stroke-width="10" stroke-opacity="1" stroke-miterlimit="26.299999"/><path fill="#ffffff" d="M 403.5625 798.894531 L 547.429688 798.894531 L 547.429688 772.234375 L 547.453125 770.230469 L 547.515625 768.226562 L 547.621094 766.222656 L 547.769531 764.222656 L 547.964844 762.226562 L 548.195312 760.234375 L 548.472656 758.25 L 548.792969 756.269531 L 549.152344 754.296875 L 549.554688 752.332031 L 550 750.375 L 550.484375 748.429688 L 551.011719 746.496094 L 551.578125 744.570312 L 552.1875 742.660156 L 552.835938 740.761719 L 553.527344 738.878906 L 554.253906 737.011719 L 555.023438 735.160156 L 555.832031 733.324219 L 556.679688 731.507812 L 557.5625 729.707031 L 558.488281 727.925781 L 559.449219 726.167969 L 560.445312 724.425781 L 561.480469 722.710938 L 562.550781 721.015625 L 563.660156 719.34375 L 564.800781 717.695312 L 566.039062 715.90625 L 567.242188 714.09375 L 568.40625 712.257812 L 569.535156 710.398438 L 570.621094 708.515625 L 571.671875 706.613281 L 572.679688 704.6875 L 573.652344 702.742188 L 574.582031 700.777344 L 575.46875 698.792969 L 576.320312 696.789062 L 577.125 694.769531 L 577.890625 692.734375 L 578.613281 690.683594 L 579.296875 688.621094 L 579.933594 686.542969 L 580.53125 684.449219 L 581.082031 682.347656 L 581.59375 680.234375 L 582.058594 678.109375 L 582.480469 675.976562 L 582.859375 673.835938 L 583.191406 671.6875 L 583.480469 669.53125 L 583.726562 667.371094 L 583.925781 665.207031 L 584.082031 663.039062 L 584.195312 660.867188 L 584.261719 658.691406 L 584.285156 656.519531 L 584.285156 532.457031 L 584.261719 531.398438 L 584.199219 530.339844 L 584.089844 529.28125 L 583.941406 528.230469 L 583.75 527.1875 L 583.519531 526.152344 L 583.242188 525.128906 L 582.929688 524.113281 L 582.574219 523.113281 L 582.175781 522.132812 L 581.738281 521.164062 L 581.265625 520.214844 L 580.753906 519.285156 L 580.207031 518.375 L 579.621094 517.492188 L 579 516.628906 L 578.347656 515.796875 L 577.660156 514.988281 L 576.9375 514.207031 L 576.191406 513.457031 L 575.410156 512.738281 L 574.601562 512.050781 L 573.765625 511.394531 L 572.90625 510.773438 L 572.019531 510.191406 L 571.113281 509.640625 L 570.183594 509.128906 L 569.234375 508.65625 L 568.265625 508.21875 L 567.28125 507.824219 L 566.28125 507.46875 L 565.269531 507.152344 L 564.242188 506.875 L 563.210938 506.644531 L 562.164062 506.453125 L 561.113281 506.304688 L 560.058594 506.195312 L 559 506.132812 L 557.9375 506.109375 L 556.878906 506.132812 L 555.820312 506.195312 L 554.765625 506.304688 L 553.714844 506.453125 L 552.671875 506.644531 L 551.636719 506.875 L 550.609375 507.152344 L 549.597656 507.46875 L 548.597656 507.824219 L 547.613281 508.21875 L 546.644531 508.65625 L 545.695312 509.128906 L 544.769531 509.640625 L 543.859375 510.191406 L 542.976562 510.773438 L 542.113281 511.394531 L 541.277344 512.050781 L 540.46875 512.738281 L 539.691406 513.457031 L 538.941406 514.207031 L 538.21875 514.988281 L 537.535156 515.796875 L 536.878906 516.628906 L 536.257812 517.492188 L 535.675781 518.375 L 535.125 519.285156 L 534.613281 520.214844 L 534.140625 521.164062 L 533.703125 522.132812 L 533.308594 523.113281 L 532.953125 524.113281 L 532.636719 525.128906 L 532.363281 526.152344 L 532.128906 527.1875 L 531.9375 528.230469 L 531.789062 529.28125 L 531.679688 530.339844 L 531.617188 531.398438 L 531.59375 532.457031 L 531.59375 509.929688 L 531.574219 508.863281 L 531.507812 507.800781 L 531.402344 506.742188 L 531.25 505.6875 L 531.058594 504.640625 L 530.824219 503.601562 L 530.550781 502.570312 L 530.234375 501.554688 L 529.875 500.550781 L 529.480469 499.5625 L 529.042969 498.59375 L 528.566406 497.640625 L 528.050781 496.707031 L 527.5 495.796875 L 526.914062 494.90625 L 526.289062 494.042969 L 525.632812 493.203125 L 524.945312 492.394531 L 524.222656 491.609375 L 523.46875 490.855469 L 522.6875 490.136719 L 521.875 489.445312 L 521.039062 488.789062 L 520.171875 488.167969 L 519.285156 487.578125 L 518.375 487.027344 L 517.441406 486.515625 L 516.488281 486.039062 L 515.515625 485.601562 L 514.53125 485.203125 L 513.527344 484.847656 L 512.511719 484.53125 L 511.480469 484.253906 L 510.441406 484.019531 L 509.394531 483.828125 L 508.339844 483.679688 L 507.28125 483.570312 L 506.21875 483.507812 L 505.152344 483.484375 L 504.089844 483.507812 L 503.027344 483.570312 L 501.96875 483.679688 L 500.914062 483.828125 L 499.863281 484.019531 L 498.828125 484.253906 L 497.796875 484.53125 L 496.78125 484.847656 L 495.777344 485.203125 L 494.789062 485.601562 L 493.820312 486.039062 L 492.867188 486.515625 L 491.933594 487.027344 L 491.023438 487.578125 L 490.136719 488.167969 L 489.269531 488.789062 L 488.429688 489.445312 L 487.621094 490.136719 L 486.839844 490.855469 L 486.085938 491.609375 L 485.363281 492.394531 L 484.671875 493.203125 L 484.015625 494.042969 L 483.394531 494.90625 L 482.808594 495.796875 L 482.257812 496.707031 L 481.742188 497.640625 L 481.265625 498.59375 L 480.828125 499.5625 L 480.429688 500.550781 L 480.074219 501.554688 L 479.757812 502.570312 L 479.480469 503.601562 L 479.246094 504.640625 L 479.058594 505.6875 L 478.90625 506.742188 L 478.800781 507.800781 L 478.734375 508.863281 L 478.714844 509.929688 L 478.714844 499.84375 L 478.695312 498.78125 L 478.628906 497.714844 L 478.523438 496.65625 L 478.371094 495.601562 L 478.179688 494.554688 L 477.945312 493.515625 L 477.671875 492.488281 L 477.355469 491.46875 L 476.996094 490.46875 L 476.597656 489.480469 L 476.164062 488.507812 L 475.6875 487.554688 L 475.171875 486.621094 L 474.621094 485.710938 L 474.035156 484.824219 L 473.410156 483.957031 L 472.753906 483.121094 L 472.066406 482.308594 L 471.34375 481.527344 L 470.589844 480.773438 L 469.808594 480.050781 L 468.996094 479.363281 L 468.15625 478.703125 L 467.292969 478.082031 L 466.40625 477.496094 L 465.492188 476.945312 L 464.5625 476.429688 L 463.609375 475.953125 L 462.640625 475.515625 L 461.648438 475.121094 L 460.648438 474.761719 L 459.628906 474.445312 L 458.601562 474.167969 L 457.5625 473.933594 L 456.515625 473.742188 L 455.460938 473.59375 L 454.402344 473.488281 L 453.339844 473.421875 L 452.273438 473.402344 L 451.210938 473.421875 L 450.148438 473.488281 L 449.089844 473.59375 L 448.03125 473.742188 L 446.984375 473.933594 L 445.945312 474.167969 L 444.917969 474.445312 L 443.902344 474.761719 L 442.898438 475.121094 L 441.910156 475.515625 L 440.941406 475.953125 L 439.988281 476.429688 L 439.054688 476.945312 L 438.144531 477.496094 L 437.253906 478.082031 L 436.390625 478.703125 L 435.554688 479.363281 L 434.742188 480.050781 L 433.960938 480.773438 L 433.207031 481.527344 L 432.484375 482.308594 L 431.792969 483.121094 L 431.136719 483.957031 L 430.515625 484.824219 L 429.929688 485.710938 L 429.378906 486.621094 L 428.863281 487.554688 L 428.386719 488.507812 L 427.949219 489.480469 L 427.554688 490.46875 L 427.195312 491.46875 L 426.878906 492.488281 L 426.601562 493.515625 L 426.367188 494.554688 L 426.175781 495.601562 L 426.027344 496.65625 L 425.921875 497.714844 L 425.855469 498.78125 L 425.835938 499.84375 L 425.835938 417.90625 L 425.8125 416.847656 L 425.75 415.789062 L 425.640625 414.730469 L 425.492188 413.679688 L 425.300781 412.636719 L 425.066406 411.601562 L 424.792969 410.578125 L 424.476562 409.566406 L 424.121094 408.566406 L 423.726562 407.582031 L 423.289062 406.613281 L 422.816406 405.664062 L 422.304688 404.734375 L 421.753906 403.828125 L 421.167969 402.941406 L 420.550781 402.078125 L 419.894531 401.246094 L 419.207031 400.4375 L 418.488281 399.65625 L 417.738281 398.90625 L 416.957031 398.1875 L 416.152344 397.5 L 415.316406 396.84375 L 414.453125 396.222656 L 413.570312 395.640625 L 412.660156 395.089844 L 411.730469 394.578125 L 410.78125 394.105469 L 409.816406 393.667969 L 408.832031 393.273438 L 407.832031 392.917969 L 406.820312 392.601562 L 405.792969 392.328125 L 404.757812 392.09375 L 403.714844 391.902344 L 402.664062 391.753906 L 401.609375 391.644531 L 400.550781 391.582031 L 399.488281 391.558594 L 398.429688 391.582031 L 397.371094 391.644531 L 396.3125 391.753906 L 395.265625 391.902344 L 394.21875 392.09375 L 393.183594 392.328125 L 392.160156 392.601562 L 391.148438 392.917969 L 390.148438 393.273438 L 389.164062 393.667969 L 388.195312 394.105469 L 387.246094 394.578125 L 386.316406 395.089844 L 385.410156 395.640625 L 384.523438 396.222656 L 383.664062 396.84375 L 382.828125 397.5 L 382.019531 398.1875 L 381.238281 398.90625 L 380.488281 399.65625 L 379.769531 400.4375 L 379.082031 401.246094 L 378.429688 402.078125 L 377.808594 402.941406 L 377.222656 403.828125 L 376.675781 404.734375 L 376.164062 405.664062 L 375.6875 406.613281 L 375.253906 407.582031 L 374.855469 408.566406 L 374.5 409.566406 L 374.183594 410.578125 L 373.910156 411.601562 L 373.679688 412.636719 L 373.484375 413.679688 L 373.335938 414.730469 L 373.230469 415.789062 L 373.167969 416.847656 L 373.144531 417.90625 L 373.144531 575.0625 L 372.527344 573.722656 L 371.867188 572.402344 L 371.171875 571.097656 L 370.433594 569.816406 L 369.660156 568.558594 L 368.851562 567.324219 L 368.003906 566.113281 L 367.121094 564.925781 L 366.207031 563.769531 L 365.253906 562.640625 L 364.273438 561.535156 L 363.253906 560.464844 L 362.207031 559.421875 L 361.128906 558.414062 L 360.023438 557.4375 L 358.886719 556.492188 L 357.722656 555.582031 L 356.535156 554.707031 L 355.320312 553.867188 L 354.078125 553.0625 L 352.816406 552.296875 L 351.53125 551.566406 L 350.226562 550.878906 L 348.898438 550.226562 L 347.554688 549.617188 L 346.191406 549.046875 L 344.8125 548.515625 L 343.421875 548.023438 L 342.011719 547.578125 L 340.59375 547.171875 L 339.160156 546.808594 L 337.71875 546.488281 L 336.269531 546.210938 L 334.808594 545.976562 L 333.34375 545.78125 L 331.875 545.636719 L 330.402344 545.53125 L 328.925781 545.472656 L 327.449219 545.453125 L 325.972656 545.480469 L 324.496094 545.550781 L 323.023438 545.667969 L 321.554688 545.824219 L 320.507812 545.972656 L 319.46875 546.164062 L 318.4375 546.398438 L 317.414062 546.671875 L 316.40625 546.988281 L 315.410156 547.34375 L 314.425781 547.738281 L 313.464844 548.171875 L 312.515625 548.644531 L 311.589844 549.152344 L 310.683594 549.699219 L 309.800781 550.28125 L 308.941406 550.898438 L 308.105469 551.546875 L 307.296875 552.230469 L 306.519531 552.945312 L 305.769531 553.691406 L 305.046875 554.46875 L 304.359375 555.269531 L 303.703125 556.101562 L 303.082031 556.957031 L 302.496094 557.835938 L 301.945312 558.738281 L 301.429688 559.664062 L 300.953125 560.609375 L 300.511719 561.570312 L 300.109375 562.550781 L 299.75 563.542969 L 299.429688 564.550781 L 299.148438 565.574219 L 298.910156 566.601562 L 298.710938 567.640625 L 298.554688 568.6875 L 298.441406 569.742188 L 298.371094 570.796875 L 298.339844 571.855469 L 298.351562 572.910156 L 298.40625 573.96875 L 298.503906 575.019531 L 298.640625 576.070312 L 298.824219 577.113281 L 299.046875 578.148438 L 299.308594 579.171875 L 299.613281 580.183594 L 299.957031 581.183594 L 300.34375 582.171875 L 300.765625 583.140625 L 301.226562 584.089844 L 301.726562 585.023438 L 302.261719 585.9375 L 302.835938 586.824219 L 303.445312 587.691406 L 304.085938 588.53125 L 304.761719 589.347656 L 305.46875 590.132812 L 306.207031 590.890625 L 306.972656 591.621094 L 307.769531 592.316406 C 321.949219 611.621094 331.632812 597.988281 335.183594 615.546875 L 335.597656 616.667969 L 335.972656 617.804688 L 336.300781 618.953125 L 336.589844 620.117188 L 336.832031 621.285156 L 337.03125 622.46875 L 337.1875 623.652344 L 337.300781 624.84375 L 337.367188 626.039062 L 337.390625 627.234375 L 337.390625 637.695312 L 337.410156 640.035156 L 337.476562 642.367188 L 337.585938 644.703125 L 337.738281 647.035156 L 337.933594 649.363281 L 338.171875 651.6875 L 338.457031 654.007812 L 338.78125 656.320312 L 339.152344 658.628906 L 339.5625 660.929688 L 340.019531 663.21875 L 340.515625 665.503906 L 341.054688 667.777344 L 341.636719 670.039062 L 342.261719 672.289062 L 342.929688 674.53125 L 343.636719 676.757812 L 344.386719 678.96875 L 345.175781 681.167969 L 346.007812 683.351562 L 346.878906 685.519531 L 347.792969 687.671875 L 348.746094 689.804688 L 349.734375 691.921875 L 350.765625 694.015625 L 351.839844 696.09375 L 352.945312 698.152344 L 354.09375 700.1875 L 355.277344 702.199219 L 356.5 704.191406 L 357.757812 706.160156 L 359.054688 708.105469 L 360.386719 710.027344 L 361.753906 711.921875 L 363.15625 713.789062 L 364.59375 715.632812 L 366.0625 717.445312 L 367.566406 719.234375 L 369.105469 720.992188 L 370.675781 722.722656 L 372.277344 724.425781 L 373.910156 726.09375 L 375.578125 727.734375 L 377.269531 729.34375 L 378.996094 730.917969 L 380.75 732.464844 L 382.53125 733.972656 L 384.339844 735.453125 L 386.179688 736.894531 L 387.277344 737.769531 L 388.351562 738.679688 L 389.394531 739.625 L 390.40625 740.601562 L 391.390625 741.609375 L 392.339844 742.644531 L 393.253906 743.714844 L 394.136719 744.808594 L 394.984375 745.933594 L 395.792969 747.082031 L 396.570312 748.253906 L 397.304688 749.453125 L 398.003906 750.671875 L 398.664062 751.914062 L 399.285156 753.179688 L 399.867188 754.457031 L 400.40625 755.757812 L 400.90625 757.074219 L 401.363281 758.402344 L 401.777344 759.746094 L 402.152344 761.105469 L 402.480469 762.472656 L 402.765625 763.847656 L 403.007812 765.234375 L 403.207031 766.628906 L 403.363281 768.023438 L 403.472656 769.425781 L 403.539062 770.832031 L 403.5625 772.238281 L 403.5625 798.898438 Z M 403.5625 798.894531 " fill-opacity="1" fill-rule="nonzero"/><g clip-path="url(#ec75139881)"><path stroke-linecap="round" transform="matrix(2.184577, 0, 0, 2.184849, -71.450091, -35.73876)" fill="none" stroke-linejoin="round" d="M 291.25023 344.839495 L 291.817058 344.022434 L 292.367794 343.192857 L 292.900649 342.352553 L 293.417411 341.501522 L 293.914504 340.639763 L 294.395503 339.769066 L 294.856834 338.88764 L 295.302072 337.997276 L 295.72764 337.096184 L 296.13354 336.187941 L 296.523346 335.272546 L 296.891695 334.348211 L 297.242164 333.416725 L 297.572963 332.478088 L 297.885881 331.534087 L 298.177342 330.581147 L 298.450921 329.62463 L 298.703044 328.662751 L 298.937286 327.693719 L 299.15007 326.7229 L 299.343185 325.746717 L 299.516631 324.766959 L 299.66862 323.783624 L 299.800939 322.796714 L 299.91359 321.808016 L 300.004783 320.81753 L 300.076307 319.823469 L 300.128162 318.829407 L 300.15856 317.835345 L 300.169289 316.839496 M 203.520521 207.630379 L 203.520521 294.297896 M 227.638457 207.630379 L 227.638457 282.796459 M 300.167501 260.059981 L 300.167501 316.841284 M 276.049564 249.747485 L 276.049564 282.796459 M 251.842223 245.132965 L 251.842223 282.796459 M 187.152224 308.225487 L 187.152224 303.437542 M 217.442693 369.805461 L 217.442693 382.007747 M 283.298535 369.805461 L 283.298535 382.007747 M 227.638457 207.626804 L 227.629517 207.142288 L 227.599119 206.657772 L 227.55084 206.173257 L 227.482892 205.692317 L 227.395275 205.214953 L 227.287989 204.741164 L 227.162822 204.27274 L 227.017985 203.809678 L 226.855268 203.351981 L 226.672882 202.901435 L 226.474402 202.458041 L 226.258042 202.023586 L 226.022012 201.59807 L 225.771677 201.183282 L 225.503462 200.777433 L 225.219154 200.384099 L 224.92054 200.001493 L 224.605834 199.631401 L 224.276823 199.273825 L 223.933507 198.930552 L 223.575887 198.601582 L 223.205749 198.286915 L 222.823095 197.986551 L 222.429713 197.702278 L 222.023813 197.435884 L 221.608973 197.183793 L 221.183405 196.94958 L 220.748896 196.733247 L 220.305446 196.533004 L 219.854844 196.352428 L 219.398878 196.189731 L 218.933971 196.044913 L 218.465488 195.919761 L 217.99164 195.812488 L 217.514217 195.724882 L 217.033217 195.656942 L 216.550429 195.606882 L 216.064065 195.578276 L 215.579489 195.567548 L 215.093125 195.578276 L 214.608549 195.606882 L 214.125761 195.656942 L 213.644761 195.724882 L 213.167338 195.812488 L 212.69349 195.919761 L 212.225007 196.044913 L 211.760101 196.189731 L 211.302346 196.352428 L 210.851744 196.533004 L 210.410083 196.733247 L 209.975574 196.94958 L 209.550005 197.183793 L 209.135165 197.435884 L 208.729266 197.702278 L 208.334095 197.986551 L 207.953229 198.286915 L 207.583091 198.601582 L 207.225471 198.930552 L 206.882155 199.273825 L 206.553144 199.631401 L 206.238438 200.001493 L 205.938036 200.384099 L 205.655516 200.777433 L 205.387301 201.183282 L 205.135178 201.59807 L 204.900937 202.023586 L 204.684576 202.458041 L 204.486097 202.901435 L 204.30371 203.351981 L 204.140993 203.809678 L 203.996156 204.27274 L 203.870989 204.741164 L 203.763703 205.214953 L 203.676086 205.692317 L 203.608138 206.173257 L 203.559859 206.657772 L 203.529461 207.142288 L 203.520521 207.626804 M 209.487421 353.626929 L 208.645225 352.967201 L 207.817333 352.291382 L 207.001958 351.599472 L 206.1991 350.891471 L 205.408758 350.170955 L 204.632721 349.434349 L 203.870989 348.685227 L 203.123562 347.920014 L 202.39044 347.142285 L 201.671622 346.350254 L 200.967109 345.54392 L 200.27869 344.726859 L 199.604575 343.895494 L 198.948341 343.051614 L 198.306412 342.197008 L 197.680576 341.329885 L 197.070833 340.450248 L 196.477182 339.559883 L 195.901413 338.658792 L 195.341737 337.74876 L 194.799941 336.826214 L 194.274239 335.894728 L 193.766418 334.952515 L 193.276477 334.00315 L 192.804418 333.043058 L 192.35024 332.074027 L 191.915731 331.097844 L 191.497315 330.112722 L 191.098568 329.122236 L 190.717702 328.122811 L 190.356505 327.116234 L 190.013189 326.102506 L 189.689542 325.083414 L 189.383777 324.058958 L 189.09768 323.027351 L 188.831253 321.992168 L 188.584495 320.951621 L 188.357405 319.907499 L 188.148197 318.858013 L 187.960447 317.804951 L 187.790577 316.748314 L 187.642164 315.689888 L 187.511633 314.627887 L 187.402558 313.564098 L 187.313153 312.498521 L 187.243417 311.431157 L 187.19335 310.363792 L 187.162952 309.294639 L 187.154012 308.225487 M 179.905041 266.172745 L 179.42583 266.240684 L 178.950194 266.330078 L 178.476347 266.435563 L 178.009652 266.560715 L 177.546533 266.705533 L 177.090567 266.86823 L 176.641753 267.048806 L 176.200092 267.247261 L 175.767371 267.463595 L 175.341802 267.696019 L 174.926962 267.946322 L 174.522851 268.212717 L 174.129468 268.495202 L 173.748602 268.79199 L 173.378465 269.104869 L 173.020844 269.432051 L 172.677528 269.773537 L 172.348517 270.129325 L 172.033811 270.49584 L 171.73341 270.876659 L 171.449101 271.268205 L 171.179098 271.670478 L 170.926975 272.083478 L 170.690946 272.507206 L 170.472797 272.939873 L 170.272529 273.379692 L 170.088355 273.82845 L 169.923849 274.282572 L 169.777225 274.743845 L 169.648481 275.21227 L 169.539407 275.682482 L 169.448214 276.158058 L 169.37669 276.63721 L 169.324835 277.119938 L 169.290861 277.602666 L 169.278344 278.087182 L 169.28192 278.569909 L 169.306954 279.054425 L 169.351656 279.537153 L 169.416028 280.016305 L 169.498281 280.493669 L 169.600203 280.967458 L 169.721794 281.435882 L 169.861266 281.898943 L 170.018619 282.356641 L 170.193853 282.808975 L 170.388756 283.252369 L 170.599752 283.688612 L 170.828629 284.114128 L 171.0736 284.532492 L 171.336451 284.938341 L 171.613607 285.33525 L 171.908644 285.721432 L 172.216198 286.093311 L 172.539844 286.452675 L 172.877796 286.801312 L 173.230052 287.133858 L 173.594825 287.452101 L 173.970327 287.75604 L 174.360133 288.045677 L 174.760668 288.317435 L 175.170144 288.57489 L 175.590348 288.814466 M 251.845799 245.129389 L 251.836858 244.643086 L 251.806461 244.156782 L 251.758182 243.670478 L 251.688446 243.187751 L 251.600829 242.708599 L 251.493542 242.233022 L 251.368375 241.76281 L 251.223539 241.297961 L 251.059033 240.838475 L 250.876647 240.386142 L 250.678167 239.940959 L 250.460019 239.504716 L 250.223989 239.079201 L 249.971867 238.660837 L 249.703651 238.254988 L 249.417555 237.859866 L 249.117153 237.475472 L 248.802447 237.103593 L 248.471648 236.746017 L 248.126544 236.400956 L 247.768923 236.070198 L 247.396998 235.755531 L 247.012556 235.453379 L 246.617385 235.169106 L 246.211486 234.900924 L 245.793069 234.648832 L 245.367501 234.412832 L 244.931204 234.194711 L 244.487754 233.996256 L 244.033576 233.813892 L 243.575821 233.649407 L 243.109126 233.504589 L 242.638855 233.379437 L 242.16322 233.272164 L 241.684008 233.184558 L 241.20122 233.114831 L 240.716644 233.066558 L 240.23028 233.036164 L 239.742128 233.027225 L 239.255764 233.036164 L 238.7694 233.066558 L 238.284824 233.114831 L 237.800248 233.184558 L 237.321036 233.272164 L 236.845401 233.379437 L 236.37513 233.504589 L 235.910223 233.649407 L 235.45068 233.813892 L 234.99829 233.996256 L 234.554841 234.194711 L 234.118543 234.412832 L 233.691187 234.648832 L 233.274559 234.900924 L 232.866871 235.169106 L 232.4717 235.453379 L 232.089046 235.755531 L 231.717121 236.070198 L 231.3595 236.400956 L 231.014396 236.746017 L 230.683597 237.103593 L 230.367103 237.475472 L 230.066701 237.859866 L 229.782393 238.254988 L 229.514178 238.660837 L 229.262055 239.079201 L 229.026025 239.504716 L 228.807877 239.940959 L 228.607609 240.386142 L 228.427011 240.838475 L 228.262505 241.297961 L 228.117669 241.76281 L 227.990714 242.233022 L 227.883427 242.708599 L 227.79581 243.187751 L 227.727862 243.670478 L 227.679584 244.156782 L 227.649186 244.643086 L 227.640245 245.129389 M 251.844011 249.745697 L 251.854739 249.257606 L 251.885137 248.771302 L 251.933416 248.286786 L 252.001364 247.804059 L 252.088981 247.324907 L 252.196267 246.84933 L 252.321434 246.379118 L 252.468059 245.912481 L 252.630776 245.452995 L 252.813163 245.000662 L 253.01343 244.557267 L 253.231579 244.121024 L 253.46582 243.693721 L 253.717943 243.277145 L 253.987946 242.869508 L 254.272255 242.474386 L 254.572656 242.09178 L 254.889151 241.719901 L 255.218162 241.360537 L 255.563265 241.017263 L 255.920886 240.686506 L 256.292812 240.370051 L 256.677254 240.069687 L 257.072425 239.785414 L 257.478324 239.515444 L 257.89674 239.263353 L 258.322309 239.02914 L 258.758606 238.811019 L 259.203844 238.610776 L 259.656234 238.428412 L 260.115776 238.265715 L 260.580683 238.120897 L 261.050954 237.993957 L 261.52659 237.886684 L 262.005801 237.799078 L 262.488589 237.731139 L 262.973165 237.681078 L 263.461317 237.652472 L 263.947681 237.641745 L 264.435834 237.652472 L 264.922198 237.681078 L 265.406774 237.731139 L 265.889562 237.799078 L 266.368773 237.886684 L 266.844409 237.993957 L 267.31468 238.120897 L 267.781375 238.265715 L 268.239129 238.428412 L 268.691519 238.610776 L 269.136757 238.811019 L 269.573054 239.02914 L 269.998623 239.263353 L 270.417039 239.515444 L 270.822938 239.785414 L 271.218109 240.069687 L 271.602551 240.370051 L 271.972689 240.686506 L 272.332098 241.017263 L 272.677201 241.360537 L 273.006212 241.719901 L 273.322707 242.09178 L 273.623108 242.474386 L 273.909205 242.869508 L 274.17742 243.277145 L 274.429543 243.693721 L 274.663784 244.121024 L 274.881933 244.557267 L 275.0822 245.000662 L 275.264587 245.452995 L 275.427304 245.912481 L 275.572141 246.379118 L 275.699096 246.84933 L 275.806382 247.324907 L 275.893999 247.804059 L 275.961947 248.286786 L 276.012014 248.771302 L 276.040624 249.257606 L 276.051352 249.745697 M 187.1558 303.433966 L 187.145071 302.885087 L 187.114674 302.339783 L 187.062819 301.79448 L 186.991295 301.250964 L 186.900101 300.711024 L 186.789239 300.17466 L 186.656919 299.643659 L 186.506719 299.116234 L 186.335061 298.597749 L 186.145522 298.082839 L 185.936314 297.576869 L 185.707436 297.079838 C 181.652018 293.355683 179.400796 291.097589 175.468757 288.676799 M 179.90683 266.170957 L 180.579156 266.099442 L 181.253271 266.045805 L 181.929174 266.013623 L 182.605077 266.001108 L 183.28098 266.010048 L 183.956883 266.036866 L 184.630998 266.085139 L 185.303325 266.153078 L 185.973864 266.240684 L 186.640826 266.347957 L 187.306001 266.474897 L 187.965811 266.621503 L 188.620257 266.787776 L 189.271126 266.973715 L 189.914843 267.179322 L 190.553196 267.402807 L 191.184397 267.645958 L 191.808445 267.906989 L 192.423552 268.185898 L 193.029719 268.484475 L 193.628734 268.800929 L 194.21702 269.133475 L 194.794577 269.4839 L 195.361406 269.852203 L 195.917506 270.236598 L 196.462877 270.637083 L 196.995732 271.053659 L 197.51607 271.486326 L 198.022103 271.933296 L 198.51562 272.396357 L 198.994832 272.871934 L 199.459738 273.363601 L 199.91034 273.867783 L 200.34485 274.384481 L 200.765054 274.915481 L 201.169165 275.457209 L 201.557184 276.011452 L 201.927321 276.576423 L 202.281365 277.15212 L 202.617529 277.738545 L 202.937599 278.335697 L 203.238001 278.940001 L 203.522309 279.555032 M 217.446269 369.801885 L 217.43554 369.158248 L 217.405142 368.514611 L 217.355076 367.872762 L 217.283551 367.232701 L 217.192358 366.594427 L 217.081496 365.961518 L 216.950964 365.330396 L 216.798975 364.704638 L 216.629106 364.084243 L 216.439567 363.469212 L 216.230359 362.859545 L 216.001481 362.258817 L 215.754723 361.663452 L 215.488296 361.077028 L 215.203987 360.499542 L 214.901798 359.930996 L 214.581727 359.371389 L 214.243776 358.824298 L 213.889732 358.286146 L 213.517806 357.760509 L 213.131576 357.245599 L 212.727464 356.744993 L 212.30726 356.256901 L 211.872751 355.781325 L 211.423937 355.320052 L 210.960818 354.873082 L 210.483395 354.442202 L 209.991666 354.025626 L 209.487421 353.625141 M 283.300323 369.801885 L 283.309263 368.882915 L 283.339661 367.965732 L 283.38794 367.048549 L 283.455888 366.134942 L 283.545293 365.219547 L 283.650791 364.309516 L 283.777746 363.399485 L 283.924371 362.493029 L 284.088876 361.590149 L 284.273051 360.690845 L 284.476895 359.796905 L 284.69862 358.904753 L 284.938225 358.019752 L 285.199288 357.140114 L 285.478233 356.264053 L 285.775058 355.396931 L 286.089764 354.535172 L 286.424139 353.678777 L 286.776395 352.831322 L 287.146533 351.991018 L 287.532763 351.159653 L 287.938663 350.33544 L 288.360655 349.521955 L 288.800528 348.715621 L 289.258283 347.920014 L 289.73213 347.133346 L 290.22207 346.357406 L 290.729892 345.592193 L 291.252018 344.837707 M 203.522309 294.29432 L 203.513368 295.116745 L 203.482971 295.93917 L 203.432904 296.761596 M 276.051352 260.058193 L 276.062081 259.573677 L 276.090691 259.087374 L 276.140757 258.604646 L 276.208705 258.123706 L 276.296322 257.646342 L 276.401821 257.172553 L 276.528776 256.704129 L 276.673612 256.23928 L 276.83633 255.781582 L 277.016928 255.331036 L 277.217196 254.88943 L 277.433556 254.454975 L 277.667798 254.029459 L 277.91992 253.612883 L 278.186348 253.208822 L 278.470656 252.8137 L 278.769269 252.431094 L 279.083975 252.06279 L 279.414774 251.705214 L 279.75809 251.361941 L 280.113923 251.032971 L 280.48406 250.718304 L 280.866714 250.41794 L 281.260097 250.133667 L 281.665996 249.867273 L 282.082624 249.615182 L 282.506405 249.380969 L 282.940914 249.162848 L 283.384364 248.964393 L 283.834966 248.783817 L 284.29272 248.619332 L 284.755839 248.476302 L 285.22611 248.349362 L 285.698169 248.243877 L 286.177381 248.156271 L 286.658381 248.088332 L 287.141169 248.038271 L 287.625745 248.009665 L 288.11032 247.998938 L 288.596685 248.009665 L 289.081261 248.038271 L 289.564048 248.088332 L 290.045048 248.156271 L 290.52426 248.243877 L 290.996319 248.349362 L 291.46659 248.476302 L 291.929709 248.619332 L 292.387463 248.783817 L 292.838065 248.964393 L 293.281515 249.162848 L 293.716024 249.380969 L 294.141593 249.615182 L 294.556433 249.867273 L 294.962332 250.133667 L 295.355715 250.41794 L 295.738369 250.718304 L 296.108506 251.032971 L 296.466127 251.361941 L 296.807655 251.705214 L 297.138454 252.06279 L 297.45316 252.431094 L 297.751773 252.8137 L 298.036082 253.208822 L 298.304297 253.612883 L 298.554631 254.029459 L 298.788873 254.454975 L 299.005233 254.88943 L 299.205501 255.331036 L 299.387888 255.781582 L 299.548817 256.23928 L 299.693653 256.704129 L 299.820609 257.172553 L 299.926107 257.646342 L 300.013724 258.123706 L 300.081672 258.604646 L 300.131739 259.087374 L 300.160348 259.573677 L 300.171077 260.058193 " stroke="#000000" stroke-width="10" stroke-opacity="1" stroke-miterlimit="4"/></g></svg>