<svg xmlns="http://www.w3.org/2000/svg" xmlns:xlink="http://www.w3.org/1999/xlink" width="1080" zoomAndPan="magnify" viewBox="0 0 810 809.999993" height="1080" preserveAspectRatio="xMidYMid meet" version="1.0"><defs><clipPath id="0f234cd9b7"><path d="M 127.835938 239 L 399 239 L 399 669.023438 L 127.835938 669.023438 Z M 127.835938 239 " clip-rule="nonzero"/></clipPath><clipPath id="5e3e0a1405"><path d="M 398 141.023438 L 421 141.023438 L 421 167 L 398 167 Z M 398 141.023438 " clip-rule="nonzero"/></clipPath><clipPath id="a0ff15ea9e"><path d="M 659 297 L 680.546875 297 L 680.546875 321.941406 L 659 321.941406 Z M 659 297 " clip-rule="nonzero"/></clipPath></defs><rect x="-81" width="972" fill="#ffffff" y="-80.999999" height="971.999992" fill-opacity="1"/><rect x="-81" width="972" fill="#beefff" y="-80.999999" height="971.999992" fill-opacity="1"/><g clip-path="url(#0f234cd9b7)"><path fill="#000000" d="M 317.664062 245.902344 C 312.972656 250.03125 303.710938 271.335938 300.457031 278.484375 C 294.886719 290.164062 287.417969 307.695312 281.5625 317.894531 C 258.152344 358.996094 219.019531 330.023438 193.710938 312.914062 C 186.648438 308.109375 162.40625 290.652344 156.859375 289.15625 C 137.972656 284.113281 122.847656 302.039062 129.386719 318.996094 C 133.105469 328.648438 152.9375 339.667969 163.496094 347.339844 L 218.058594 385.25 C 221.738281 387.789062 222.105469 393.761719 223.285156 398.074219 C 229.582031 420.984375 238.496094 450.542969 243.332031 471.992188 C 250.632812 504.046875 274.375 598.480469 278.535156 636.050781 C 281.667969 682.054688 329.441406 679.074219 325.148438 632.375 C 321.253906 590.054688 299.992188 515.054688 295.4375 494.136719 L 304.460938 492.101562 C 312.191406 514.632812 336.8125 601.867188 357.902344 635.886719 C 376.644531 666.078125 404.757812 643.261719 396.992188 617.957031 C 381.019531 576.113281 366.027344 532.925781 351.835938 489.898438 C 347.375 476.527344 343.023438 463.046875 338.738281 449.640625 L 334.808594 437.726562 C 329.84375 416.375 320.742188 385.183594 314.472656 362.511719 C 312.261719 354.628906 330.625 320.90625 335.875 309.828125 C 342.800781 295.152344 356.3125 279.429688 358.652344 265.574219 C 362.125 244.890625 334.664062 230.914062 317.664062 245.902344 " fill-opacity="1" fill-rule="evenodd"/></g><path fill="#000000" d="M 273.070312 267.210938 C 268.269531 249.402344 249.742188 238.832031 231.753906 243.585938 C 213.757812 248.347656 203.085938 266.664062 207.925781 284.492188 C 212.726562 302.308594 231.226562 312.878906 249.238281 308.128906 C 267.25 303.335938 277.914062 285.050781 273.070312 267.210938 " fill-opacity="1" fill-rule="evenodd"/><path fill="#000000" d="M 487.28125 163.246094 C 491.984375 167.421875 501.257812 188.679688 504.484375 195.839844 C 510.101562 207.496094 517.589844 225.050781 523.394531 235.222656 C 546.847656 276.359375 585.972656 247.386719 611.207031 230.277344 C 618.335938 225.503906 642.539062 208.070312 648.132812 206.550781 C 667.027344 201.46875 682.128906 219.410156 675.59375 236.328125 C 671.855469 245.980469 652.003906 257.058594 641.472656 264.699219 L 586.9375 302.621094 C 583.261719 305.160156 582.917969 311.15625 581.683594 315.445312 C 575.414062 338.382812 566.503906 367.917969 561.625 389.316406 C 554.382812 421.40625 530.660156 515.84375 526.421875 553.410156 C 523.332031 599.40625 475.570312 596.441406 479.84375 549.777344 C 483.753906 507.449219 505.023438 432.425781 509.507812 411.507812 L 500.582031 409.5 C 492.789062 431.976562 468.167969 519.25 447.078125 553.222656 C 428.367188 583.441406 400.253906 560.6875 407.964844 535.324219 C 428.964844 480.394531 448.207031 423.273438 466.246094 367.0625 L 470.214844 355.148438 C 475.183594 333.792969 484.285156 302.636719 490.554688 279.957031 C 492.691406 272.078125 474.335938 238.34375 469.175781 227.195312 C 462.226562 212.523438 448.6875 196.8125 446.339844 182.953125 C 442.84375 162.214844 470.328125 148.308594 487.28125 163.246094 " fill-opacity="1" fill-rule="evenodd"/><path fill="#000000" d="M 531.875 184.574219 C 536.675781 166.746094 555.203125 156.160156 573.183594 160.96875 C 591.246094 165.71875 601.878906 184.074219 597.089844 201.878906 C 592.242188 219.660156 573.726562 230.25 555.71875 225.441406 C 537.75 220.679688 527.027344 202.367188 531.875 184.574219 " fill-opacity="1" fill-rule="evenodd"/><path fill="#000000" d="M 357.253906 188.964844 C 358.746094 187.132812 358.464844 184.4375 356.632812 182.945312 C 354.796875 181.457031 352.101562 181.730469 350.613281 183.5625 L 337.730469 199.445312 C 336.242188 201.277344 336.519531 203.972656 338.347656 205.464844 C 340.183594 206.953125 342.878906 206.671875 344.367188 204.839844 L 357.253906 188.964844 " fill-opacity="1" fill-rule="nonzero"/><path fill="#000000" d="M 259.410156 181.640625 C 257.914062 179.808594 255.222656 179.527344 253.390625 181.019531 C 251.554688 182.507812 251.277344 185.203125 252.765625 187.039062 L 265.675781 202.941406 C 267.167969 204.777344 269.863281 205.050781 271.695312 203.558594 C 273.53125 202.070312 273.808594 199.375 272.320312 197.539062 L 259.410156 181.640625 " fill-opacity="1" fill-rule="nonzero"/><path fill="#000000" d="M 413.480469 216.265625 C 411.992188 214.4375 409.296875 214.160156 407.464844 215.648438 C 405.628906 217.140625 405.355469 219.835938 406.847656 221.667969 L 419.75 237.5625 C 421.242188 239.390625 423.941406 239.667969 425.769531 238.179688 C 427.601562 236.6875 427.882812 233.992188 426.394531 232.160156 L 413.480469 216.265625 " fill-opacity="1" fill-rule="nonzero"/><path fill="#000000" d="M 171.945312 200.898438 C 170.457031 199.070312 167.761719 198.792969 165.929688 200.28125 C 164.09375 201.773438 163.816406 204.46875 165.304688 206.300781 L 178.1875 222.171875 C 179.683594 224.003906 182.378906 224.285156 184.210938 222.792969 C 186.039062 221.304688 186.316406 218.609375 184.828125 216.773438 L 171.945312 200.898438 " fill-opacity="1" fill-rule="nonzero"/><g clip-path="url(#5e3e0a1405)"><path fill="#000000" d="M 419.09375 148.578125 C 420.570312 146.730469 420.28125 144.035156 418.4375 142.558594 C 416.597656 141.078125 413.902344 141.371094 412.417969 143.210938 L 399.601562 159.074219 C 398.117188 160.917969 398.414062 163.613281 400.253906 165.09375 C 402.097656 166.578125 404.792969 166.28125 406.269531 164.441406 L 419.09375 148.578125 " fill-opacity="1" fill-rule="nonzero"/></g><path fill="#000000" d="M 641.675781 168.777344 C 643.167969 166.941406 642.886719 164.253906 641.054688 162.757812 C 639.21875 161.265625 636.527344 161.546875 635.035156 163.378906 L 622.152344 179.277344 C 620.664062 181.113281 620.945312 183.808594 622.769531 185.296875 C 624.605469 186.789062 627.300781 186.507812 628.789062 184.679688 L 641.675781 168.777344 " fill-opacity="1" fill-rule="nonzero"/><g clip-path="url(#a0ff15ea9e)"><path fill="#000000" d="M 679.59375 304.414062 C 681.082031 302.585938 680.804688 299.890625 678.96875 298.394531 C 677.136719 296.90625 674.441406 297.183594 672.953125 299.019531 L 660.058594 314.867188 C 658.570312 316.695312 658.84375 319.390625 660.675781 320.882812 C 662.507812 322.371094 665.203125 322.097656 666.695312 320.265625 L 679.59375 304.414062 " fill-opacity="1" fill-rule="nonzero"/></g><path fill="#000000" d="M 439.511719 344.824219 C 441.003906 342.992188 440.722656 340.296875 438.890625 338.804688 C 437.054688 337.316406 434.367188 337.59375 432.871094 339.429688 L 419.964844 355.25 C 418.476562 357.085938 418.757812 359.78125 420.589844 361.269531 C 422.417969 362.761719 425.117188 362.480469 426.609375 360.652344 L 439.511719 344.824219 " fill-opacity="1" fill-rule="nonzero"/><path fill="#000000" d="M 395.171875 294.441406 C 393.679688 292.609375 390.984375 292.335938 389.152344 293.824219 C 387.324219 295.316406 387.042969 298.011719 388.535156 299.84375 L 401.394531 315.667969 C 402.882812 317.5 405.578125 317.773438 407.410156 316.285156 C 409.246094 314.792969 409.523438 312.097656 408.027344 310.265625 L 395.171875 294.441406 " fill-opacity="1" fill-rule="nonzero"/></svg>